<?xml version="1.0" encoding="UTF-8"?><svg id="Layer_2" xmlns="http://www.w3.org/2000/svg" viewBox="0 0 391 322.87"><g id="Layer_1-2"><path d="M134.84,277.08c-6.64-9.62-5.83-18.48,2.41-26.58,8.25-8.09,19.79-8.9,34.62-2.43,14.85,6.47,25.57,11.34,32.17,14.58" pointer-events="stroke" fill="none" stroke="#e98d6a" stroke-width="4"/><path d="M95.33,257.67c-.1-9.63,3.98-17.69,12.23-24.18,8.25-6.47,17.32-8.9,27.21-7.28,9.9,1.62,18.15,4.05,24.74,7.28,6.6,3.25,21.44,12.97,44.54,29.16" pointer-events="stroke" fill="none" stroke="#e98d6a" stroke-width="4"/><path d="M80.34,235.92c0-9.71,1.65-16.59,4.96-20.64,3.29-4.05,7.42-7.29,12.37-9.73,4.94-2.42,12.36-2.83,22.25-1.21,9.89,1.62,18.14,4.86,24.74,9.71,6.6,4.87,26.39,21.07,59.38,48.6" pointer-events="stroke" fill="none" stroke="#e98d6a" stroke-width="4"/><path d="M11.23,315.9c32.89-77.61,54.28-119.65,64.17-126.14,9.89-6.47,19.79-8.9,29.68-7.28,9.89,1.62,18.14,4.86,24.74,9.71,6.6,4.87,31.34,28.35,74.22,70.47" pointer-events="stroke" fill="none" stroke="#e98d6a" stroke-width="4"/><path d="M30.98,185.04c3.23-9.81,7.31-16.74,12.25-20.79,4.95-4.04,10.07-6.87,15.34-8.49,5.28-1.63,12.86-1.63,22.76,0,9.89,1.62,18.8,4.86,26.72,9.71,7.91,4.86,15.17,10.12,21.76,15.79,6.6,5.67,14.02,12.56,22.27,20.66,8.25,8.09,25.56,28.34,51.95,60.74" pointer-events="stroke" fill="none" stroke="#e98d6a" stroke-width="4"/><path d="M20.98,150.89c13.19-6.47,22.59-9.71,28.2-9.71s13.35.81,23.24,2.43c9.89,1.62,18.8,4.86,26.72,9.71,7.91,4.87,15.17,10.13,21.76,15.8,6.6,5.67,14.02,12.55,22.27,20.64,8.25,8.1,28.53,32.4,60.86,72.89" pointer-events="stroke" fill="none" stroke="#e98d6a" stroke-width="4"/><path d="M1.19,116.89c13.2-9.72,23.09-14.58,29.68-14.58s14.35,1.62,23.26,4.86c8.91,3.24,17.32,7.29,25.23,12.15,7.92,4.86,15.18,10.12,21.78,15.79,6.59,5.67,14.01,12.56,22.25,20.66,8.25,8.09,35.13,43.73,80.65,106.9" pointer-events="stroke" fill="none" stroke="#e98d6a" stroke-width="4"/><path d="M40.77,97.45c13.2,0,22.6,1.62,28.2,4.86,5.61,3.24,12.21,7.29,19.8,12.15,7.59,4.86,14.68,10.52,21.28,17,6.59,6.48,37.92,50.22,94,131.21" pointer-events="stroke" fill="none" stroke="#e98d6a" stroke-width="4"/><path d="M50.66,68.28c19.79,12.96,32.16,21.87,37.11,26.74,4.94,4.86,10.71,11.33,17.31,19.44,6.6,8.09,39.58,57.49,98.96,148.2" pointer-events="stroke" fill="none" stroke="#e98d6a" stroke-width="4"/><path d="M218.94,320.87c-9.93.07-22.32-3.14-37.17-9.63-14.85-6.47-20.62-15.38-17.31-26.72,3.29-11.34,9.07-18.63,17.31-21.87,8.25-3.25,15.67-3.25,22.27,0" pointer-events="stroke" fill="none" stroke="#e98d6a" stroke-width="4"/><path d="M184.24,296.67c-3.29-3.24-4.12-8.09-2.47-14.57,1.65-6.48,9.07-12.96,22.27-19.44" pointer-events="stroke" fill="none" stroke="#e98d6a" stroke-width="4"/><path d="M258.46,311.25c-39.57,0-57.71-16.2-54.42-48.59" pointer-events="stroke" fill="none" stroke="#e98d6a" stroke-width="4"/><path d="M307.94,291.81c-39.58,19.44-74.22,9.73-103.9-29.15" pointer-events="stroke" fill="none" stroke="#e98d6a" stroke-width="4"/><path d="M357.25,228.83c-55.97,67.9-107.04,79.18-153.22,33.83" pointer-events="stroke" fill="none" stroke="#e98d6a" stroke-width="4"/><path d="M383.63,149.44c-43.87,98.15-103.73,135.89-179.59,113.22" pointer-events="stroke" fill="none" stroke="#e98d6a" stroke-width="4"/><path d="M386.61,105.71c-39.25,104.63-100.1,156.95-182.57,156.95" pointer-events="stroke" fill="none" stroke="#e98d6a" stroke-width="4"/><path d="M389.08,39.13c-40.9,142.53-102.58,217.04-185.04,223.53" pointer-events="stroke" fill="none" stroke="#e98d6a" stroke-width="4"/><path d="M374.24.26c-17.81,136.06-74.55,223.53-170.2,262.4" pointer-events="stroke" fill="none" stroke="#e98d6a" stroke-width="4"/><path d="M343.56,89.68c-40.24,95.88-86.75,153.54-139.53,172.98" pointer-events="stroke" fill="none" stroke="#e98d6a" stroke-width="4"/><path d="M348.51,19.7c-43.54,136.06-91.7,217.05-144.47,242.96" pointer-events="stroke" fill="none" stroke="#e98d6a" stroke-width="4"/><path d="M313.87,48.85c-23.74,113.39-60.35,184.66-109.83,213.81" pointer-events="stroke" fill="none" stroke="#e98d6a" stroke-width="4"/></g></svg>